<svg xmlns="http://www.w3.org/2000/svg" xmlns:xlink="http://www.w3.org/1999/xlink" viewBox="0,0,256,256" width="64px" height="64px" fill-rule="nonzero"><defs><linearGradient x1="24.695" y1="4" x2="24.695" y2="32.659" gradientUnits="userSpaceOnUse" id="color-1"><stop offset="0" stop-color="#000000"></stop><stop offset="1" stop-color="#c822ff"></stop></linearGradient><linearGradient x1="32.462" y1="19.024" x2="32.462" y2="60" gradientUnits="userSpaceOnUse" id="color-2"><stop offset="0" stop-color="#6dc7ff"></stop><stop offset="1" stop-color="#e6abff"></stop></linearGradient></defs><g transform="translate(4,4) scale(0.96875,0.96875)"><g fill="#050000" fill-rule="nonzero" stroke="none" stroke-width="1" stroke-linecap="butt" stroke-linejoin="miter" stroke-miterlimit="10" stroke-dasharray="" stroke-dashoffset="0" font-family="none" font-weight="none" font-size="none" text-anchor="none" style="mix-blend-mode: normal"><path d="M-4.12903,260.12903v-264.25806h264.25806v264.25806z" id="bgRectangle"></path></g><g fill="#ffffff" fill-rule="nonzero" stroke="none" stroke-width="1" stroke-linecap="butt" stroke-linejoin="miter" stroke-miterlimit="10" stroke-dasharray="" stroke-dashoffset="0" font-family="none" font-weight="none" font-size="none" text-anchor="none" style="mix-blend-mode: normal"><path d="M128,256c-70.69245,0 -128,-57.30755 -128,-128v0c0,-70.69245 57.30755,-128 128,-128v0c70.69245,0 128,57.30755 128,128v0c0,70.69245 -57.30755,128 -128,128z" id="shape"></path></g><g fill-opacity="0" fill="#fa7409" fill-rule="nonzero" stroke-opacity="0" stroke="#fa7409" stroke-width="32" stroke-linecap="butt" stroke-linejoin="round" stroke-miterlimit="10" stroke-dasharray="" stroke-dashoffset="0" font-family="none" font-weight="none" font-size="none" text-anchor="none" style="mix-blend-mode: normal"><path d="M90.036,130.636l1.28,-4.236c1.836,-6.064 0.184,-12.648 -4.296,-17.128l-40.972,-40.972l52.3,-52.3l53.16,53.16zM162.348,176l-8,8h-104.6l8,-8zM74.348,216l-8,-8h64l-8,8zM105.748,128h103.808l0.396,0.396l-7.604,7.604h-104.6zM145.748,88l11.904,-11.904l11.904,11.904zM146.348,192l-8,8h-80l-8,-8zM114.348,224l-16,16l-16,-16zM177.556,96l8,8h-55.808l8,-8zM194.348,144l-8,8h-104.6l8,-8zM178.348,160l-8,8h-104.6l8,-8zM193.556,112l8,8h-87.808l8,-8z" id="strokeMainSVG"></path></g><g fill="none" fill-rule="nonzero" stroke="none" stroke-width="1" stroke-linecap="butt" stroke-linejoin="miter" stroke-miterlimit="10" stroke-dasharray="" stroke-dashoffset="0" font-family="none" font-weight="none" font-size="none" text-anchor="none" style="mix-blend-mode: normal"><g transform="scale(4,4)"><path d="M37.877,17.29l-13.29,-13.29l-13.075,13.075l10.243,10.243c1.12,1.12 1.533,2.766 1.074,4.282l-0.32,1.059z" fill="url(#color-1)"></path><path d="M40.587,44l-2,2h-26.15l2,-2zM30.587,54l2,-2h-16l2,2zM24.437,34h26.15l1.901,-1.901l-0.099,-0.099h-25.952zM42.389,22l-2.976,-2.976l-2.976,2.976zM12.587,48l2,2h20l2,-2zM20.587,56l4,4l4,-4zM34.437,24l-2,2h13.952l-2,-2zM22.437,36l-2,2h26.15l2,-2zM18.437,40l-2,2h26.15l2,-2zM30.437,28l-2,2h21.952l-2,-2z" fill="url(#color-2)"></path></g></g><g fill="none" fill-rule="nonzero" stroke="none" stroke-width="none" stroke-linecap="butt" stroke-linejoin="none" stroke-miterlimit="10" stroke-dasharray="" stroke-dashoffset="0" font-family="none" font-weight="none" font-size="none" text-anchor="none" style="mix-blend-mode: normal"><path d="M154.385,208.01h-3.4v-10.2h-1.89v-2.48h1.89v-1.08c0,-1.42 0.40667,-2.52333 1.22,-3.31c0.82,-0.78667 1.96333,-1.18 3.43,-1.18c0.46667,0 1.04,0.08 1.72,0.24l-0.03,2.62c-0.28667,-0.06667 -0.63,-0.1 -1.03,-0.1c-1.27333,0 -1.91,0.59667 -1.91,1.79v1.02h2.51v2.48h-2.51zM162.235,195.33v12.68h-3.4v-12.68zM158.635,192.05c0,-0.50667 0.17,-0.92333 0.51,-1.25c0.34,-0.33333 0.80333,-0.5 1.39,-0.5c0.57333,0 1.03333,0.16667 1.38,0.5c0.34667,0.32667 0.52,0.74333 0.52,1.25c0,0.51333 -0.17667,0.93333 -0.53,1.26c-0.34667,0.33333 -0.80333,0.5 -1.37,0.5c-0.57333,0 -1.03333,-0.16667 -1.38,-0.5c-0.34667,-0.32667 -0.52,-0.74667 -0.52,-1.26zM168.595,190.01v18h-3.4v-18zM171.385,195.33h3.17l0.11,1.42c0.9,-1.1 2.11333,-1.65 3.64,-1.65c1.63333,0 2.75667,0.64333 3.37,1.93c0.88667,-1.28667 2.15667,-1.93 3.81,-1.93c1.37333,0 2.39667,0.4 3.07,1.2c0.66667,0.8 1,2.00333 1,3.61v8.1h-3.39v-8.09c0,-0.71333 -0.14333,-1.23667 -0.43,-1.57c-0.28,-0.33333 -0.77333,-0.5 -1.48,-0.5c-1.02,0 -1.72333,0.48333 -2.11,1.45l0.01,8.71h-3.39v-8.07c0,-0.74 -0.14333,-1.27333 -0.43,-1.6c-0.29333,-0.32667 -0.78667,-0.49 -1.48,-0.49c-0.96,0 -1.65333,0.4 -2.08,1.2v8.96h-3.39zM191.635,201.55c0,-1.25333 0.24333,-2.37333 0.73,-3.36c0.48,-0.98667 1.17667,-1.75 2.09,-2.29c0.90667,-0.53333 1.96333,-0.8 3.17,-0.8c1.70667,0 3.10333,0.52333 4.19,1.57c1.08,1.04667 1.68333,2.46667 1.81,4.26l0.02,0.87c0,1.94667 -0.54333,3.50667 -1.63,4.68c-1.08667,1.17333 -2.54333,1.76 -4.37,1.76c-1.82667,0 -3.28667,-0.58333 -4.38,-1.75c-1.08667,-1.17333 -1.63,-2.76667 -1.63,-4.78zM195.025,201.8c0,1.2 0.22667,2.12 0.68,2.76c0.45333,0.63333 1.1,0.95 1.94,0.95c0.82,0 1.46,-0.31333 1.92,-0.94c0.46,-0.62667 0.69,-1.63333 0.69,-3.02c0,-1.18 -0.23,-2.09333 -0.69,-2.74c-0.46,-0.64667 -1.10667,-0.97 -1.94,-0.97c-0.82667,0 -1.46667,0.32 -1.92,0.96c-0.45333,0.64667 -0.68,1.64667 -0.68,3zM212.855,198.51c-0.46,-0.06667 -0.86667,-0.1 -1.22,-0.1c-1.28,0 -2.12,0.43333 -2.52,1.3v8.3h-3.38v-12.68h3.2l0.09,1.51c0.68,-1.16 1.62,-1.74 2.82,-1.74c0.38,0 0.73333,0.05 1.06,0.15zM224.905,208.01h-3.42c-0.16,-0.30667 -0.27333,-0.68667 -0.34,-1.14c-0.82,0.91333 -1.88667,1.37 -3.2,1.37c-1.24667,0 -2.27667,-0.35667 -3.09,-1.07c-0.81333,-0.72 -1.22,-1.62667 -1.22,-2.72c0,-1.34667 0.49667,-2.38 1.49,-3.1c0.99333,-0.71333 2.43333,-1.07667 4.32,-1.09h1.56v-0.72c0,-0.58667 -0.15333,-1.05667 -0.46,-1.41c-0.3,-0.35333 -0.77333,-0.53 -1.42,-0.53c-0.56667,0 -1.01333,0.13667 -1.34,0.41c-0.32667,0.27333 -0.49,0.65 -0.49,1.13h-3.38c0,-0.73333 0.22667,-1.41333 0.68,-2.04c0.45333,-0.62667 1.09333,-1.11667 1.92,-1.47c0.82667,-0.35333 1.75667,-0.53 2.79,-0.53c1.56,0 2.8,0.39 3.72,1.17c0.91333,0.78667 1.37,1.89 1.37,3.31v5.5c0.01333,1.20667 0.18333,2.11667 0.51,2.73zM218.685,205.65c0.5,0 0.96,-0.11 1.38,-0.33c0.42,-0.22 0.73333,-0.52 0.94,-0.9v-2.18h-1.27c-1.69333,0 -2.59667,0.58667 -2.71,1.76l-0.01,0.2c0,0.42 0.15,0.76667 0.45,1.04c0.29333,0.27333 0.7,0.41 1.22,0.41z" id="strokeMainSVG" fill-opacity="0" fill="#fa7409" stroke-opacity="0" stroke="#fa7409" stroke-width="32" stroke-linejoin="round"></path><g id="text" fill="#000000" stroke="none" stroke-width="1" stroke-linejoin="miter"><path d="M154.385,208.01h-3.4v-10.2h-1.89v-2.48h1.89v-1.08c0,-1.42 0.40667,-2.52333 1.22,-3.31c0.82,-0.78667 1.96333,-1.18 3.43,-1.18v0c0.46667,0 1.04,0.08 1.72,0.24v0l-0.03,2.62c-0.28667,-0.06667 -0.63,-0.1 -1.03,-0.1v0c-1.27333,0 -1.91,0.59667 -1.91,1.79v0v1.02h2.51v2.48h-2.51zM162.235,195.33v12.68h-3.4v-12.68zM158.635,192.05v0c0,-0.50667 0.17,-0.92333 0.51,-1.25c0.34,-0.33333 0.80333,-0.5 1.39,-0.5v0c0.57333,0 1.03333,0.16667 1.38,0.5c0.34667,0.32667 0.52,0.74333 0.52,1.25v0c0,0.51333 -0.17667,0.93333 -0.53,1.26c-0.34667,0.33333 -0.80333,0.5 -1.37,0.5c-0.57333,0 -1.03333,-0.16667 -1.38,-0.5c-0.34667,-0.32667 -0.52,-0.74667 -0.52,-1.26zM168.595,190.01v18h-3.4v-18zM171.385,195.33h3.17l0.11,1.42c0.9,-1.1 2.11333,-1.65 3.64,-1.65v0c1.63333,0 2.75667,0.64333 3.37,1.93v0c0.88667,-1.28667 2.15667,-1.93 3.81,-1.93v0c1.37333,0 2.39667,0.4 3.07,1.2c0.66667,0.8 1,2.00333 1,3.61v0v8.1h-3.39v-8.09c0,-0.71333 -0.14333,-1.23667 -0.43,-1.57c-0.28,-0.33333 -0.77333,-0.5 -1.48,-0.5v0c-1.02,0 -1.72333,0.48333 -2.11,1.45v0l0.01,8.71h-3.39v-8.07c0,-0.74 -0.14333,-1.27333 -0.43,-1.6c-0.29333,-0.32667 -0.78667,-0.49 -1.48,-0.49v0c-0.96,0 -1.65333,0.4 -2.08,1.2v0v8.96h-3.39zM191.635,201.71v-0.16c0,-1.25333 0.24333,-2.37333 0.73,-3.36c0.48,-0.98667 1.17667,-1.75 2.09,-2.29c0.90667,-0.53333 1.96333,-0.8 3.17,-0.8v0c1.70667,0 3.10333,0.52333 4.19,1.57c1.08,1.04667 1.68333,2.46667 1.81,4.26v0l0.02,0.87c0,1.94667 -0.54333,3.50667 -1.63,4.68c-1.08667,1.17333 -2.54333,1.76 -4.37,1.76c-1.82667,0 -3.28667,-0.58333 -4.38,-1.75c-1.08667,-1.17333 -1.63,-2.76667 -1.63,-4.78zM195.025,201.8v0c0,1.2 0.22667,2.12 0.68,2.76c0.45333,0.63333 1.1,0.95 1.94,0.95v0c0.82,0 1.46,-0.31333 1.92,-0.94c0.46,-0.62667 0.69,-1.63333 0.69,-3.02v0c0,-1.18 -0.23,-2.09333 -0.69,-2.74c-0.46,-0.64667 -1.10667,-0.97 -1.94,-0.97v0c-0.82667,0 -1.46667,0.32 -1.92,0.96c-0.45333,0.64667 -0.68,1.64667 -0.68,3zM212.905,195.25l-0.05,3.26c-0.46,-0.06667 -0.86667,-0.1 -1.22,-0.1v0c-1.28,0 -2.12,0.43333 -2.52,1.3v0v8.3h-3.38v-12.68h3.2l0.09,1.51c0.68,-1.16 1.62,-1.74 2.82,-1.74v0c0.38,0 0.73333,0.05 1.06,0.15zM224.905,208.01h-3.42c-0.16,-0.30667 -0.27333,-0.68667 -0.34,-1.14v0c-0.82,0.91333 -1.88667,1.37 -3.2,1.37v0c-1.24667,0 -2.27667,-0.35667 -3.09,-1.07c-0.81333,-0.72 -1.22,-1.62667 -1.22,-2.72v0c0,-1.34667 0.49667,-2.38 1.49,-3.1c0.99333,-0.71333 2.43333,-1.07667 4.32,-1.09v0h1.56v-0.72c0,-0.58667 -0.15333,-1.05667 -0.46,-1.41c-0.3,-0.35333 -0.77333,-0.53 -1.42,-0.53v0c-0.56667,0 -1.01333,0.13667 -1.34,0.41c-0.32667,0.27333 -0.49,0.65 -0.49,1.13v0h-3.38c0,-0.73333 0.22667,-1.41333 0.68,-2.04c0.45333,-0.62667 1.09333,-1.11667 1.92,-1.47c0.82667,-0.35333 1.75667,-0.53 2.79,-0.53v0c1.56,0 2.8,0.39 3.72,1.17c0.91333,0.78667 1.37,1.89 1.37,3.31v0v5.5c0.01333,1.20667 0.18333,2.11667 0.51,2.73v0zM218.685,205.65v0c0.5,0 0.96,-0.11 1.38,-0.33c0.42,-0.22 0.73333,-0.52 0.94,-0.9v0v-2.18h-1.27c-1.69333,0 -2.59667,0.58667 -2.71,1.76v0l-0.01,0.2c0,0.42 0.15,0.76667 0.45,1.04c0.29333,0.27333 0.7,0.41 1.22,0.41z"></path></g></g></g></svg>